<svg height="128" role="img" viewBox="0 20 105 105" width="128" xmlns="http://www.w3.org/2000/svg" xmlns:xlink="http://www.w3.org/1999/xlink">
  <linearGradient id="trello-logo-gradient-defaultMJFtCCgVhXrVl7v9HA7EH" x1="49.992%" x2="49.992%" y1="0%" y2="0%">
    <stop offset="0" stop-color="#0052cc"></stop>
    <stop offset="1" stop-color="#2684ff"></stop>
  </linearGradient>
  <path d="m55.3 40.6h-47.5c-4.1 0-7.4 3.3-7.4 7.4v47.6c0 4.1 3.3 7.4 7.4 7.4h47.5c4.1 0 7.4-3.3 7.4-7.4v-47.6c0-4.1-3.3-7.4-7.4-7.4zm-28.1 44.9c0 1.4-1.1 2.5-2.5 2.5h-10.4c-1.4 0-2.5-1.1-2.5-2.5v-30.9c0-1.4 1.1-2.5 2.5-2.5h10.4c1.4 0 2.5 1.1 2.5 2.5zm24-14.2c0 1.4-1.1 2.5-2.4 2.5h-10.5c-1.4 0-2.5-1.1-2.5-2.5v-16.7c0-1.4 1.1-2.5 2.5-2.5h10.4c1.4 0 2.5 1.1 2.5 2.5z" fill="url(#trello-logo-gradient-defaultMJFtCCgVhXrVl7v9HA7EH)"></path>
</svg>
