<?xml version="1.0" encoding="utf-8"?>
<!-- Generator: Adobe Illustrator 24.0.2, SVG Export Plug-In . SVG Version: 6.00 Build 0)  -->
<svg version="1.0" id="Layer_1" xmlns="http://www.w3.org/2000/svg" xmlns:xlink="http://www.w3.org/1999/xlink" x="0px" y="0px"
	 viewBox="0 0 300 280" enable-background="new 0 0 300 280" xml:space="preserve">
<title>Atlassian-horizontal-blue-rgb</title>
<g id="Layer_2_1_">
	<g id="Blue">
		
			<linearGradient id="SVGID_1_" gradientUnits="userSpaceOnUse" x1="65.9041" y1="139.3922" x2="59.9376" y2="129.0579" gradientTransform="matrix(1 0 0 -1 0 280.1102)">
			<stop  offset="0" style="stop-color:#325BA9"/>
			<stop  offset="0.92" style="stop-color:#4B7BBE"/>
		</linearGradient>
		<path fill="url(#SVGID_1_)" d="M62.8,138.98c-0.22-0.29-0.63-0.34-0.92-0.12c-0.08,0.06-0.15,0.15-0.2,0.25l-5.65,11.3
			c-0.17,0.33-0.03,0.74,0.3,0.91c0.09,0.05,0.2,0.07,0.31,0.07h7.87c0.26,0.01,0.5-0.14,0.61-0.37
			C66.81,147.5,65.78,142.17,62.8,138.98z"/>
		<path fill="#4B7BBE" d="M66.95,128.69c-2.88,4.41-3.21,10.01-0.89,14.73l3.81,7.59c0.11,0.23,0.35,0.37,0.61,0.37h7.87
			c0.37,0,0.67-0.31,0.67-0.68c0-0.1-0.03-0.2-0.07-0.29L68.1,128.69c-0.15-0.32-0.53-0.45-0.85-0.3
			C67.11,128.45,67.01,128.56,66.95,128.69z"/>
		<path fill="#325BA9" d="M159.28,137.76c0,2.79,1.3,5.02,6.38,6c3.03,0.63,3.66,1.13,3.66,2.14c0,1.01-0.63,1.62-2.79,1.62
			c-2.58-0.05-5.11-0.73-7.36-1.99v4.56c1.53,0.75,3.55,1.59,7.31,1.59c5.31,0,7.42-2.37,7.42-5.89 M173.91,145.79
			c0-3.32-1.76-4.88-6.73-5.95c-2.74-0.61-3.41-1.21-3.41-2.09c0-1.1,0.98-1.56,2.79-1.56c2.19,0,4.36,0.67,6.41,1.59v-4.35
			c-1.97-0.9-4.11-1.34-6.27-1.3c-4.91,0-7.45,2.14-7.45,5.63"/>
		<polygon fill="#325BA9" points="227.5,132.42 227.5,151.39 231.54,151.39 231.54,136.93 233.25,140.77 238.96,151.39 
			244.04,151.39 244.04,132.42 240,132.42 240,144.66 238.47,141.11 233.88,132.42 		"/>
		<rect x="197.39" y="132.42" fill="#325BA9" width="4.42" height="18.96"/>
		<path fill="#325BA9" d="M192.29,145.79c0-3.32-1.76-4.88-6.73-5.95c-2.74-0.61-3.41-1.21-3.41-2.09c0-1.1,0.98-1.56,2.79-1.56
			c2.19,0,4.36,0.67,6.41,1.59v-4.35c-1.97-0.9-4.11-1.34-6.27-1.3c-4.91,0-7.45,2.14-7.45,5.63c0,2.79,1.3,5.02,6.38,6
			c3.03,0.63,3.66,1.13,3.66,2.14c0,1.01-0.63,1.62-2.79,1.62c-2.58-0.05-5.11-0.73-7.36-1.99v4.56c1.53,0.75,3.55,1.59,7.31,1.59
			c5.31,0,7.42-2.37,7.42-5.89"/>
		<polygon fill="#325BA9" points="124.98,132.42 124.98,151.39 134.05,151.39 135.48,147.29 129.42,147.29 129.42,132.42 		"/>
		<polygon fill="#325BA9" points="107.04,132.42 107.04,136.52 111.95,136.52 111.95,151.39 116.39,151.39 116.39,136.52 
			121.65,136.52 121.65,132.42 		"/>
		<path fill="#325BA9" d="M100.6,132.42h-5.82l-6.62,18.96h5.07l0.93-3.19c2.31,0.68,4.77,0.68,7.08,0l0.94,3.19h5.05L100.6,132.42z
			 M97.69,144.78c-0.83,0-1.65-0.12-2.44-0.35l2.44-8.28l2.44,8.28C99.33,144.66,98.51,144.78,97.69,144.78z"/>
		<path fill="#325BA9" d="M149.7,132.42h-5.82l-6.62,18.96h5.05l0.94-3.19c2.31,0.68,4.76,0.68,7.07,0l0.94,3.19h5.05L149.7,132.42z
			 M146.79,144.78c-0.83,0-1.65-0.12-2.44-0.35l2.44-8.28l2.44,8.28C148.43,144.66,147.61,144.78,146.79,144.78L146.79,144.78z"/>
		<path fill="#325BA9" d="M217.72,132.42h-5.82l-6.62,18.96h5.05l0.94-3.19c2.31,0.68,4.76,0.68,7.07,0l0.94,3.19h5.05
			L217.72,132.42z M214.81,144.78c-0.83,0-1.65-0.12-2.44-0.35l2.44-8.28l2.44,8.28C216.45,144.66,215.63,144.78,214.81,144.78
			L214.81,144.78z"/>
	</g>
</g>
</svg>
