<svg xmlns="http://www.w3.org/2000/svg" viewBox="0 0 215.08 183.116"><defs><linearGradient id="linear-gradient" x1="107.54" y1="183.116" x2="107.54" y2="75.576" gradientUnits="userSpaceOnUse"><stop offset="0" stop-color="#1db9d4"/><stop offset=".125" stop-color="#38c3da"/><stop offset=".264" stop-color="#4fcbdf"/><stop offset=".415" stop-color="#5fd1e2"/><stop offset=".586" stop-color="#68d4e4"/><stop offset=".818" stop-color="#6bd5e5"/></linearGradient><style>.cls-3{fill:none;stroke:#3384ff;stroke-miterlimit:10;stroke-width:2px}</style></defs><g id="Layer_2" data-name="Layer 2"><g id="Objects"><path d="M214.914 75.443 131.533 8.445a38.304 38.304 0 0 0-47.985 0L.166 75.443H0v107.54h215.08V75.443Z" style="fill:#0065ff"/><path style="fill:#fafbfc" d="M25.423 22.424H188.26v131.824H25.423z"/><path class="cls-3" d="M43.859 58.171H169.51"/><path style="fill:#1db9d4" d="M25.423 19.519H188.26v12.146H25.423z"/><path class="cls-3" d="M43.859 67.758h65.732M43.859 48.584H169.51M43.859 86.931H169.51M43.859 96.517H169.51M43.859 106.104h72.283"/><path d="M215.08 183.116c-36.44 0-59.694-5.878-74.15-14.237-33.542-19.394-37.686-47.244-72.724-70.597C43.444 81.78 17.552 77.053 0 75.576v107.54Z" style="fill:url(#linear-gradient)"/><path d="M0 183.116c36.676 0 59.694-5.878 74.15-14.237 33.542-19.394 37.686-47.244 72.724-70.597 24.762-16.503 50.653-21.229 68.205-22.706v107.54Z" style="fill:#6bd5e5"/></g></g></svg>