<svg fill="#fff" width="40px" viewBox="0 0 1024 1024" version="1.1" xmlns="http://www.w3.org/2000/svg"><path d="M535.588571 808.228571a296.411429 296.411429 0 0 0 196.260572-96.329142c-34.011429-13.293714-65.590857-23.424-96.128-30.592-22.893714 46.445714-56.283429 88.777143-100.150857 126.902857z m-12.745142-13.165714c41.088-35.584 72.539429-74.806857 94.427428-117.76a490.112 490.112 0 0 0-94.427428-9.508571v127.268571z m150.180571-273.92c-0.694857 51.273143-10.550857 99.035429-29.513143 143.213714 32.073143 7.753143 65.206857 18.614857 100.882286 32.841143a295.789714 295.789714 0 0 0 64.603428-176.054857h-135.972571z m-18.285714 0h-131.894857v128.365714c34.450286 0.128 68.004571 3.620571 102.509714 10.788572 18.889143-42.843429 28.672-89.197714 29.366857-139.154286z m-127.524572-305.901714c45.147429 37.595429 79.835429 79.36 104.045715 125.275428 31.268571-7.076571 63.597714-17.243429 98.413714-30.774857a296.32 296.32 0 0 0-202.459429-94.500571z m-4.388571 20.260571v117.485715c30.171429-0.109714 59.611429-2.907429 89.764571-8.594286-21.595429-39.497143-51.510857-75.776-89.746285-108.891429zM672.896 502.857143h136.118857a295.826286 295.826286 0 0 0-66.56-178.468572c-36.388571 14.409143-70.162286 25.325714-102.857143 32.987429 20.662857 44.745143 31.780571 93.257143 33.28 145.481143z m-18.285714 0c-1.554286-50.925714-12.653714-98.084571-33.353143-141.513143-33.060571 6.582857-65.298286 9.819429-98.395429 9.929143V502.857143h131.730286z m-165.851429 305.389714c-42.88-36.571429-76.050286-77.019429-99.437714-121.325714l-9.252572 2.322286c-22.674286 5.796571-45.165714 12.178286-77.988571 21.942857l-8.301714 2.468571a296.356571 296.356571 0 0 0 194.998857 94.592z m15.817143-10.605714v-129.462857c-28.964571 1.334857-60.635429 6.180571-96.841143 14.372571 22.893714 41.984 55.168 80.329143 96.841143 115.108572zM347.52 521.142857h-132.516571a295.808 295.808 0 0 0 65.645714 177.353143l16.201143-4.827429a2039.04 2039.04 0 0 1 84.150857-23.533714c-21.156571-45.750857-32.329143-95.451429-33.462857-148.992z m18.285714 0c1.170286 52.114286 12.251429 100.297143 33.353143 144.621714 39.405714-9.142857 73.801143-14.500571 105.398857-15.908571V521.142857h-138.733714z m122.953143-305.389714a296.32 296.32 0 0 0-192.658286 92.086857l5.961143 1.773714c32.822857 9.764571 55.314286 16.128 77.988572 21.942857 3.638857 0.914286 7.222857 1.828571 10.788571 2.688 23.277714-43.209143 55.936-82.706286 97.92-118.491428z m15.798857 10.605714c-40.740571 33.974857-72.484571 71.369143-95.268571 112.237714 35.547429 7.972571 66.742857 12.690286 95.268571 14.025143v-126.281143zM347.52 502.857143c1.170286-54.674286 12.8-105.325714 34.834286-151.862857l-6.820572-1.737143a2039.04 2039.04 0 0 1-78.683428-22.125714c-2.688-0.804571-8.649143-2.56-14.08-4.205715a295.844571 295.844571 0 0 0-67.766857 179.931429h132.516571z m18.285714 0h138.752v-131.931429c-31.232-1.371429-65.188571-6.637714-104.009143-15.579428-21.997714 45.110857-33.554286 94.262857-34.742857 147.510857zM512 836.571429c-179.254857 0-324.571429-145.316571-324.571429-324.571429S332.745143 187.428571 512 187.428571 836.571429 332.745143 836.571429 512 691.254857 836.571429 512 836.571429z" fill="#fff" /></svg>